<svg xmlns="http://www.w3.org/2000/svg" width="1200" height="748" viewBox="0 0 1200 748">
<defs><style>
@import url('https://fonts.googleapis.com/css2?family=Inter:wght@400;600;700&amp;family=Orbitron:wght@700;800&amp;display=block');
.d{font-family:Orbitron,Arial,sans-serif;font-weight:800}
.t{font-family:Inter,Arial,sans-serif}
</style>
<radialGradient id="glow" cx="15%" cy="0%" r="70%"><stop offset="0" stop-color="#63e6ff" stop-opacity=".16"/><stop offset="1" stop-color="#63e6ff" stop-opacity="0"/></radialGradient></defs>
<rect width="1200" height="748" fill="#071522"/><rect width="1200" height="748" fill="url(#glow)"/>
<text x="60" y="64" class="t" fill="#63e6ff" font-size="17" font-weight="700" letter-spacing="2.5">CRACKED ICE · WEEKLY EDGE</text>
<text x="60" y="112" class="d" fill="#f1f8ff" font-size="38">Games vs starts that count</text>
<text x="60" y="146" class="t" fill="#9cb6c7" font-size="19">Sep 28 to Oct 4. A game only counts if your lineup has room for him that night.</text>
<g transform="translate(0 196)">
<text x="60" y="22" class="t" fill="#f1f8ff" font-size="18" font-weight="700">NYR</text>
<rect x="160" y="6" width="600" height="22" rx="5" fill="none" stroke="#24465c" stroke-width="2"/>
<rect x="160" y="6" width="510" height="22" rx="5" fill="#63e6ff" opacity=".9"/>
<text x="774" y="23" class="t" fill="#9cb6c7" font-size="16">4 games → <tspan fill="#f1f8ff" font-weight="700">3.4</tspan> usable</text>
</g><g transform="translate(0 230)">
<text x="60" y="22" class="t" fill="#f1f8ff" font-size="18" font-weight="700">VAN</text>
<rect x="160" y="6" width="600" height="22" rx="5" fill="none" stroke="#24465c" stroke-width="2"/>
<rect x="160" y="6" width="405" height="22" rx="5" fill="#ffd27e" opacity=".9"/>
<text x="774" y="23" class="t" fill="#9cb6c7" font-size="16">4 games → <tspan fill="#f1f8ff" font-weight="700">2.7</tspan> usable · 1 on a packed night</text>
</g><g transform="translate(0 264)">
<text x="60" y="22" class="t" fill="#f1f8ff" font-size="18" font-weight="700">VGK</text>
<rect x="160" y="6" width="450" height="22" rx="5" fill="none" stroke="#24465c" stroke-width="2"/>
<rect x="160" y="6" width="405" height="22" rx="5" fill="#63e6ff" opacity=".9"/>
<text x="624" y="23" class="t" fill="#9cb6c7" font-size="16">3 games → <tspan fill="#f1f8ff" font-weight="700">2.7</tspan> usable</text>
</g><g transform="translate(0 298)">
<text x="60" y="22" class="t" fill="#f1f8ff" font-size="18" font-weight="700">FLA</text>
<rect x="160" y="6" width="450" height="22" rx="5" fill="none" stroke="#24465c" stroke-width="2"/>
<rect x="160" y="6" width="375" height="22" rx="5" fill="#63e6ff" opacity=".9"/>
<text x="624" y="23" class="t" fill="#9cb6c7" font-size="16">3 games → <tspan fill="#f1f8ff" font-weight="700">2.5</tspan> usable</text>
</g><g transform="translate(0 332)">
<text x="60" y="22" class="t" fill="#f1f8ff" font-size="18" font-weight="700">BOS</text>
<rect x="160" y="6" width="450" height="22" rx="5" fill="none" stroke="#24465c" stroke-width="2"/>
<rect x="160" y="6" width="300" height="22" rx="5" fill="#63e6ff" opacity=".9"/>
<text x="624" y="23" class="t" fill="#9cb6c7" font-size="16">3 games → <tspan fill="#f1f8ff" font-weight="700">2.0</tspan> usable · 1 on a packed night</text>
</g><g transform="translate(0 366)">
<text x="60" y="22" class="t" fill="#f1f8ff" font-size="18" font-weight="700">CAR</text>
<rect x="160" y="6" width="450" height="22" rx="5" fill="none" stroke="#24465c" stroke-width="2"/>
<rect x="160" y="6" width="300" height="22" rx="5" fill="#63e6ff" opacity=".9"/>
<text x="624" y="23" class="t" fill="#9cb6c7" font-size="16">3 games → <tspan fill="#f1f8ff" font-weight="700">2.0</tspan> usable · 1 on a packed night</text>
</g><g transform="translate(0 400)">
<text x="60" y="22" class="t" fill="#f1f8ff" font-size="18" font-weight="700">TOR</text>
<rect x="160" y="6" width="450" height="22" rx="5" fill="none" stroke="#24465c" stroke-width="2"/>
<rect x="160" y="6" width="300" height="22" rx="5" fill="#63e6ff" opacity=".9"/>
<text x="624" y="23" class="t" fill="#9cb6c7" font-size="16">3 games → <tspan fill="#f1f8ff" font-weight="700">2.0</tspan> usable · 1 on a packed night</text>
</g><g transform="translate(0 434)">
<text x="60" y="22" class="t" fill="#f1f8ff" font-size="18" font-weight="700">CGY</text>
<rect x="160" y="6" width="450" height="22" rx="5" fill="none" stroke="#24465c" stroke-width="2"/>
<rect x="160" y="6" width="285" height="22" rx="5" fill="#ffd27e" opacity=".9"/>
<text x="624" y="23" class="t" fill="#9cb6c7" font-size="16">3 games → <tspan fill="#f1f8ff" font-weight="700">1.9</tspan> usable · 1 on a packed night</text>
</g><g transform="translate(0 468)">
<text x="60" y="22" class="t" fill="#f1f8ff" font-size="18" font-weight="700">PHI</text>
<rect x="160" y="6" width="450" height="22" rx="5" fill="none" stroke="#24465c" stroke-width="2"/>
<rect x="160" y="6" width="285" height="22" rx="5" fill="#ffd27e" opacity=".9"/>
<text x="624" y="23" class="t" fill="#9cb6c7" font-size="16">3 games → <tspan fill="#f1f8ff" font-weight="700">1.9</tspan> usable · 1 on a packed night</text>
</g><g transform="translate(0 502)">
<text x="60" y="22" class="t" fill="#f1f8ff" font-size="18" font-weight="700">SEA</text>
<rect x="160" y="6" width="450" height="22" rx="5" fill="none" stroke="#24465c" stroke-width="2"/>
<rect x="160" y="6" width="285" height="22" rx="5" fill="#ffd27e" opacity=".9"/>
<text x="624" y="23" class="t" fill="#9cb6c7" font-size="16">3 games → <tspan fill="#f1f8ff" font-weight="700">1.9</tspan> usable · 1 on a packed night</text>
</g><g transform="translate(0 536)">
<text x="60" y="22" class="t" fill="#f1f8ff" font-size="18" font-weight="700">UTA</text>
<rect x="160" y="6" width="450" height="22" rx="5" fill="none" stroke="#24465c" stroke-width="2"/>
<rect x="160" y="6" width="285" height="22" rx="5" fill="#ffd27e" opacity=".9"/>
<text x="624" y="23" class="t" fill="#9cb6c7" font-size="16">3 games → <tspan fill="#f1f8ff" font-weight="700">1.9</tspan> usable · 1 on a packed night</text>
</g><g transform="translate(0 570)">
<text x="60" y="22" class="t" fill="#f1f8ff" font-size="18" font-weight="700">CHI</text>
<rect x="160" y="6" width="450" height="22" rx="5" fill="none" stroke="#24465c" stroke-width="2"/>
<rect x="160" y="6" width="270" height="22" rx="5" fill="#ffd27e" opacity=".9"/>
<text x="624" y="23" class="t" fill="#9cb6c7" font-size="16">3 games → <tspan fill="#f1f8ff" font-weight="700">1.8</tspan> usable · 1 on a packed night</text>
</g><g transform="translate(0 604)">
<text x="60" y="22" class="t" fill="#f1f8ff" font-size="18" font-weight="700">EDM</text>
<rect x="160" y="6" width="450" height="22" rx="5" fill="none" stroke="#24465c" stroke-width="2"/>
<rect x="160" y="6" width="270" height="22" rx="5" fill="#ffd27e" opacity=".9"/>
<text x="624" y="23" class="t" fill="#9cb6c7" font-size="16">3 games → <tspan fill="#f1f8ff" font-weight="700">1.8</tspan> usable · 1 on a packed night</text>
</g><g transform="translate(60 670)"><rect width="18" height="12" rx="3" fill="#63e6ff"/><text x="26" y="11" class="t" fill="#9cb6c7" font-size="15">usable starts for a forward pickup</text><rect x="300" width="18" height="12" rx="3" fill="#ffd27e"/><text x="326" y="11" class="t" fill="#9cb6c7" font-size="15">loses a game or more to crowded nights</text><rect x="660" width="18" height="12" rx="3" fill="none" stroke="#24465c" stroke-width="2"/><text x="686" y="11" class="t" fill="#9cb6c7" font-size="15">scheduled games</text></g>
<text x="60" y="718" class="t" fill="#6f8ea3" font-size="15">Simulated from 1,800 Yahoo-style fantasy rosters · crackedicehockey.com</text>
</svg>