<svg xmlns="http://www.w3.org/2000/svg" width="1200" height="675" viewBox="0 0 1200 675">
<defs><style>
@import url('https://fonts.googleapis.com/css2?family=Inter:wght@400;600;700&amp;family=Orbitron:wght@700;800&amp;display=block');
.d{font-family:Orbitron,Arial,sans-serif;font-weight:800}
.t{font-family:Inter,Arial,sans-serif}
</style>
<radialGradient id="glow" cx="15%" cy="0%" r="70%"><stop offset="0" stop-color="#63e6ff" stop-opacity=".16"/><stop offset="1" stop-color="#63e6ff" stop-opacity="0"/></radialGradient></defs>
<rect width="1200" height="675" fill="#071522"/><rect width="1200" height="675" fill="url(#glow)"/>
<text x="60" y="64" class="t" fill="#63e6ff" font-size="17" font-weight="700" letter-spacing="2.5">CRACKED ICE · WEEKLY EDGE</text>
<text x="60" y="112" class="d" fill="#f1f8ff" font-size="38">The week in one picture</text>
<text x="60" y="146" class="t" fill="#9cb6c7" font-size="19">Sep 28 to Oct 4. Light nights leave room to stream. Packed nights don't.</text>
<text x="60" y="186" class="t" fill="#9cb6c7" font-size="16">Bars: share of rosters with an open forward slot that night, after their own players are in.</text><g transform="translate(60 200)">
<rect width="124" height="360" rx="16" fill="#0d2032" stroke="#24465c" stroke-width="1" />
<text x="16" y="34" class="t" fill="#f1f8ff" font-size="18" font-weight="700">Mon</text>
<text x="16" y="56" class="t" fill="#6f8ea3" font-size="14">Sep 28</text>
<text x="16" y="116" class="d" fill="#f1f8ff" font-size="46">0</text>
<text x="16" y="140" class="t" fill="#9cb6c7" font-size="14">games</text>
<text x="16" y="322" class="t" fill="#6f8ea3" font-size="14">No games</text>
</g><g transform="translate(198 200)">
<rect width="124" height="360" rx="16" fill="#0f3346" stroke="#63e6ff" stroke-width="2" />
<text x="16" y="34" class="t" fill="#f1f8ff" font-size="18" font-weight="700">Tue</text>
<text x="16" y="56" class="t" fill="#6f8ea3" font-size="14">Sep 29</text>
<text x="16" y="116" class="d" fill="#63e6ff" font-size="46">5</text>
<text x="16" y="140" class="t" fill="#9cb6c7" font-size="14">games</text>
<rect x="16" y="199" width="92" height="131" rx="6" fill="#84f7a6" opacity=".85"/>
<text x="62" y="220" text-anchor="middle" class="t" fill="#071522" font-size="17" font-weight="700">87%</text>
</g><g transform="translate(336 200)">
<rect width="124" height="360" rx="16" fill="#0f3346" stroke="#63e6ff" stroke-width="2" />
<text x="16" y="34" class="t" fill="#f1f8ff" font-size="18" font-weight="700">Wed</text>
<text x="16" y="56" class="t" fill="#6f8ea3" font-size="14">Sep 30</text>
<text x="16" y="116" class="d" fill="#63e6ff" font-size="46">3</text>
<text x="16" y="140" class="t" fill="#9cb6c7" font-size="14">games</text>
<rect x="16" y="187" width="92" height="143" rx="6" fill="#84f7a6" opacity=".85"/>
<text x="62" y="208" text-anchor="middle" class="t" fill="#071522" font-size="17" font-weight="700">95%</text>
</g><g transform="translate(474 200)">
<rect width="124" height="360" rx="16" fill="#0f3346" stroke="#63e6ff" stroke-width="2" />
<text x="16" y="34" class="t" fill="#f1f8ff" font-size="18" font-weight="700">Thu</text>
<text x="16" y="56" class="t" fill="#6f8ea3" font-size="14">Oct 1</text>
<text x="16" y="116" class="d" fill="#63e6ff" font-size="46">8</text>
<text x="16" y="140" class="t" fill="#9cb6c7" font-size="14">games</text>
<rect x="16" y="222" width="92" height="108" rx="6" fill="#84f7a6" opacity=".85"/>
<text x="62" y="243" text-anchor="middle" class="t" fill="#071522" font-size="17" font-weight="700">72%</text>
</g><g transform="translate(612 200)">
<rect width="124" height="360" rx="16" fill="#0f3346" stroke="#63e6ff" stroke-width="2" />
<text x="16" y="34" class="t" fill="#f1f8ff" font-size="18" font-weight="700">Fri</text>
<text x="16" y="56" class="t" fill="#6f8ea3" font-size="14">Oct 2</text>
<text x="16" y="116" class="d" fill="#63e6ff" font-size="46">5</text>
<text x="16" y="140" class="t" fill="#9cb6c7" font-size="14">games</text>
<rect x="16" y="198" width="92" height="132" rx="6" fill="#84f7a6" opacity=".85"/>
<text x="62" y="219" text-anchor="middle" class="t" fill="#071522" font-size="17" font-weight="700">88%</text>
</g><g transform="translate(750 200)">
<rect width="124" height="360" rx="16" fill="#3a1622" stroke="#ff7d8b" stroke-width="2" />
<text x="16" y="34" class="t" fill="#f1f8ff" font-size="18" font-weight="700">Sat</text>
<text x="16" y="56" class="t" fill="#6f8ea3" font-size="14">Oct 3</text>
<text x="16" y="116" class="d" fill="#ff7d8b" font-size="46">13</text>
<text x="16" y="140" class="t" fill="#9cb6c7" font-size="14">games</text>
<rect x="16" y="298" width="92" height="32" rx="6" fill="#ff7d8b" opacity=".85"/>
<text x="62" y="319" text-anchor="middle" class="t" fill="#071522" font-size="17" font-weight="700">21%</text>
</g><g transform="translate(888 200)">
<rect width="124" height="360" rx="16" fill="#0f3346" stroke="#63e6ff" stroke-width="2" />
<text x="16" y="34" class="t" fill="#f1f8ff" font-size="18" font-weight="700">Sun</text>
<text x="16" y="56" class="t" fill="#6f8ea3" font-size="14">Oct 4</text>
<text x="16" y="116" class="d" fill="#63e6ff" font-size="46">5</text>
<text x="16" y="140" class="t" fill="#9cb6c7" font-size="14">games</text>
<rect x="16" y="190" width="92" height="140" rx="6" fill="#84f7a6" opacity=".85"/>
<text x="62" y="211" text-anchor="middle" class="t" fill="#071522" font-size="17" font-weight="700">93%</text>
</g><g transform="translate(1044 200)">
<rect width="124" height="360" rx="16" fill="#0f3346" stroke="#63e6ff" stroke-width="2" stroke-dasharray="6 5"/>
<text x="16" y="34" class="t" fill="#f1f8ff" font-size="18" font-weight="700">Next Mon</text>
<text x="16" y="56" class="t" fill="#6f8ea3" font-size="14">Oct 5</text>
<text x="16" y="116" class="d" fill="#63e6ff" font-size="46">4</text>
<text x="16" y="140" class="t" fill="#9cb6c7" font-size="14">games</text>
<rect x="16" y="193" width="92" height="137" rx="6" fill="#84f7a6" opacity=".85"/>
<text x="62" y="214" text-anchor="middle" class="t" fill="#071522" font-size="17" font-weight="700">91%</text>
</g><text x="1044" y="586" class="t" fill="#ffd27e" font-size="14" font-weight="700">Sun-Mon: WPG</text>
<text x="60" y="645" class="t" fill="#6f8ea3" font-size="15">Simulated from 1,800 Yahoo-style fantasy rosters · crackedicehockey.com</text>
</svg>